<?xml version="1.0" encoding="utf-8"?>
<!-- Generator: Adobe Illustrator 25.4.1, SVG Export Plug-In . SVG Version: 6.00 Build 0)  -->
<svg version="1.1" id="Layer_1" xmlns="http://www.w3.org/2000/svg" xmlns:xlink="http://www.w3.org/1999/xlink" x="0px" y="0px"
	 viewBox="0 0 1580 565" style="enable-background:new 0 0 1580 565;" xml:space="preserve">
<style type="text/css">
	.st0{clip-path:url(#SVGID_00000114792719397364294350000008510015777223620276_);fill:#5FA15C;}
	.st1{clip-path:url(#SVGID_00000033359983864815128420000010243867112451017614_);fill:#669E59;}
	.st2{clip-path:url(#SVGID_00000033359983864815128420000010243867112451017614_);fill:#76A86A;}
	.st3{clip-path:url(#SVGID_00000033359983864815128420000010243867112451017614_);fill:#84B179;}
</style>
<g>
	<g>
		<defs>
			<rect id="SVGID_1_" x="-0.34" y="0.1" width="1579.88" height="565"/>
		</defs>
		<clipPath id="SVGID_00000139983432371380875420000013035530160636012962_">
			<use xlink:href="#SVGID_1_"  style="overflow:visible;"/>
		</clipPath>
		<path style="clip-path:url(#SVGID_00000139983432371380875420000013035530160636012962_);fill:#5FA15C;" d="M-0.46,30.45v534.11
			h1580V0.65l-395.79,178.29c-65.84,29.66-152.21,47.44-192.9,39.72L-0.46,30.45"/>
	</g>
	<g>
		<defs>
			<path id="SVGID_00000131349238774680795120000006386627652112233651_" d="M-0.46,30.45v534.11h1580V0.65l-395.79,178.29
				c-65.84,29.66-152.21,47.44-192.9,39.72L-0.46,30.45"/>
		</defs>
		<clipPath id="SVGID_00000085961059176119698770000013599106174537708168_">
			<use xlink:href="#SVGID_00000131349238774680795120000006386627652112233651_"  style="overflow:visible;"/>
		</clipPath>
		<path style="clip-path:url(#SVGID_00000085961059176119698770000013599106174537708168_);fill:#669E59;" d="M1510.02,564.55
			H483.54l502.48-177.98c22.89-8.11,51.06-12.01,80.08-12.01c43.42,0,88.73,8.74,121.08,25.25L1510.02,564.55"/>
		<path style="clip-path:url(#SVGID_00000085961059176119698770000013599106174537708168_);fill:#76A86A;" d="M1579.54,564.55
			h-69.52l-322.84-164.74c-32.35-16.51-77.66-25.25-121.08-25.25c-29.02,0-57.19,3.91-80.08,12.01L483.54,564.55h-484V30.45v199.59
			l331.82,212.09c33.1,21.15,81.57,32.77,127.12,32.77c24.72,0,48.58-3.42,68.66-10.59l1052.4-376.02V564.55"/>
		<path style="clip-path:url(#SVGID_00000085961059176119698770000013599106174537708168_);fill:#84B179;" d="M458.48,474.89
			c-45.55,0-94.02-11.61-127.12-32.77L-0.46,230.03V30.45l991.31,188.21c6.43,1.22,14,1.8,22.46,1.8
			c45.02,0,115.01-16.55,170.44-41.52L1579.54,0.65v87.63L527.13,464.3C507.06,471.47,483.2,474.89,458.48,474.89"/>
	</g>
</g>
</svg>
